<svg xmlns="http://www.w3.org/2000/svg" id="Layer_1" viewBox="0 0 895 336"><defs><style>      .st0 {        fill-rule: evenodd;      }      .st0, .st1 {        fill: #ff6c26;      }    </style></defs><path class="st1" d="M262.4,308.6c0,2.6-.7,4.7-2.1,6.4-1.3,1.7-3.2,3-5.5,3.8-2.3.8-4.8,1.3-7.6,1.3h-21.7v-44.9h24.7c2.1,0,3.9.6,5.4,1.7,1.5,1.1,2.7,2.5,3.5,4.3.8,1.8,1.3,3.6,1.3,5.5s-.5,4.1-1.6,6.1c-1.1,1.9-2.7,3.3-4.8,4.3,2.5.8,4.6,2.1,6,4,1.5,1.9,2.3,4.4,2.3,7.5ZM251.9,306.6c0-1-.2-1.8-.6-2.5-.4-.8-.9-1.3-1.5-1.8-.6-.5-1.3-.7-2.1-.7h-11.8v9.8h11.4c.9,0,1.6-.2,2.3-.6.7-.4,1.3-1,1.7-1.7.4-.7.6-1.5.6-2.5ZM235.9,284.1v9.3h10.1c.8,0,1.4-.2,2.1-.5.7-.3,1.2-.8,1.6-1.5.4-.7.6-1.6.6-2.7s-.2-1.9-.6-2.5c-.3-.7-.8-1.2-1.4-1.5-.6-.4-1.3-.6-2-.6h-10.5ZM324.5,320.5c-3.5,0-6.6-.6-9.1-1.8-2.5-1.2-4.6-2.9-6.1-4.9-1.5-2.1-2.7-4.5-3.4-7.1-.7-2.7-1.1-5.5-1.1-8.5v-22.9h10.3v22.9c0,1.7.2,3.3.5,4.9.3,1.6.9,3,1.6,4.2.8,1.2,1.7,2.2,2.9,2.9,1.2.7,2.7,1.1,4.4,1.1s3.3-.4,4.5-1.1c1.2-.8,2.2-1.8,2.9-3,.7-1.3,1.2-2.7,1.6-4.2.3-1.6.5-3.2.5-4.8v-22.9h10.3v22.9c0,3.1-.4,6-1.2,8.7-.8,2.7-1.9,5.1-3.5,7.1-1.6,2-3.6,3.6-6.1,4.7-2.5,1.1-5.4,1.7-8.9,1.7ZM396,275.3l9.6,19.9,9.7-19.9h11.2l-15.9,29.6v15.3h-10.2v-15.4l-15.6-29.5h11.2ZM474.3,285.8v34.4h-5.6v-44.9h4.8l27.2,35.1v-35h5.6v44.8h-5.1l-26.8-34.4ZM567.4,275.3h4.8l18.2,44.9h-6l-5.3-13.1h-18.7l-5.2,13.1h-6l18.2-44.9ZM577.8,302.6l-8-20.7-8.3,20.7h16.3ZM671.7,320.2v-34.3l-14.7,26.4h-3.4l-14.7-26.4v34.3h-5.6v-44.9h6l16.1,29.1,16.2-29.1h5.9v44.9h-5.6ZM725,320.2v-44.9h5.6v44.9h-5.6ZM775.3,297.4c0-2.7.5-5.4,1.4-8,1-2.7,2.3-5.1,4.1-7.2,1.8-2.2,4.1-3.9,6.7-5.2,2.6-1.3,5.6-2,9-2s7.4.9,10.2,2.8c2.8,1.8,4.9,4.2,6.3,7l-4.4,2.9c-.9-1.9-2-3.4-3.4-4.5-1.3-1.1-2.8-1.9-4.4-2.4-1.5-.5-3.1-.7-4.6-.7-2.5,0-4.7.5-6.6,1.5-1.9,1-3.5,2.4-4.8,4-1.3,1.7-2.3,3.6-2.9,5.7-.6,2.1-.9,4.2-.9,6.3s.4,4.6,1.1,6.7c.8,2.2,1.9,4,3.3,5.7,1.4,1.6,3,3,4.9,3.9,1.9,1,3.9,1.5,6.1,1.5s3.1-.3,4.8-.8c1.6-.5,3.2-1.4,4.6-2.5,1.4-1.2,2.5-2.7,3.4-4.6l4.7,2.6c-.9,2.2-2.3,4.1-4.3,5.7-1.9,1.6-4.1,2.7-6.5,3.5-2.3.8-4.7,1.2-7,1.2s-5.8-.7-8.4-2c-2.5-1.3-4.8-3.1-6.6-5.3-1.8-2.2-3.3-4.7-4.3-7.5-1-2.8-1.5-5.6-1.5-8.4ZM884,284.7c-.5-.6-1.2-1.2-2-1.7s-1.8-1-2.8-1.5c-1-.5-2.2-.8-3.4-1.1-1.2-.3-2.5-.4-3.8-.4-3.4,0-6,.7-7.6,2-1.6,1.3-2.4,3.1-2.4,5.4s.4,2.9,1.3,3.8c.8.9,2.1,1.7,3.8,2.3,1.8.6,4,1.2,6.6,1.8,3.1.7,5.8,1.5,8,2.5,2.3,1,4,2.3,5.2,3.9,1.2,1.6,1.8,3.8,1.8,6.4s-.4,4-1.3,5.6c-.8,1.6-1.9,2.9-3.4,3.9-1.5,1-3.2,1.8-5.1,2.3-2,.5-4.1.7-6.4.7s-4.5-.2-6.6-.7c-2.1-.5-4.2-1.2-6.1-2.1-1.9-.9-3.7-2.1-5.4-3.5l2.7-4.8c.7.7,1.5,1.4,2.6,2.1,1.1.7,2.3,1.3,3.6,1.9,1.4.6,2.9,1.1,4.4,1.5,1.6.3,3.2.5,4.9.5,3.2,0,5.6-.6,7.4-1.7,1.8-1.2,2.6-2.9,2.6-5.1s-.5-3-1.5-4c-1-1-2.4-1.9-4.3-2.5-1.9-.7-4.3-1.3-7-2-3-.8-5.5-1.6-7.6-2.5-2-.9-3.6-2.1-4.6-3.6-1-1.5-1.5-3.4-1.5-5.8s.7-5.3,2.1-7.3c1.4-2,3.3-3.5,5.7-4.5,2.4-1,5.2-1.5,8.2-1.5s3.9.2,5.6.6c1.8.4,3.4,1,4.9,1.8,1.5.8,2.9,1.7,4.1,2.7l-2.6,4.6Z"></path><path class="st1" d="M248.3,55.6c-25.3-5.2-43.7-9.5-59.2-13.7-2-5.5-5-15.2-13-22.7S157.5.9,89.1.9c18.5,17.2,19.9,29.7,18.5,52.4,0,.3-1.2,12.3-1.5,21.4l-.5,17.8-6.9,3.5c-12.8,6.5-21.3,15.5-31.3,33-6,10.6-10.3,20.1-18.6,41-5.8,14.6-10.4,26.3-11.4,29-.6,1.6-3.3,8.4-6,15.2-2.7,6.8-5.9,14.9-7.1,18.1-6.3,17.2-13.8,31.3-21.7,40.8-3.3,3.9-2.7,4.9,3,4.9s10.1-3,24.3-16.7c13.3-12.9,22.1-19.6,22.1-19.6l5.6-4.3,6-4.4s1.7-1.2,2.7-2c1.5-1.1,2.4-1.8,3.6-2.6.5-.4,1.1-.8,1.8-1.3,1.4-1,2.9-2,4.1-2.9,1-.7,1.9-1.3,2.5-1.7,1.4-1,4.5-3.2,6.9-4.9,11.5-8.1,32.4-25.4,40-33.1,13.8-14,23.3-34.2,25.1-53.7,1.1-11.8,1.7-13.8,4.4-13.8,4.4,0,6.4,6.2,6.4,20.3,0,20.5-4.2,32.4-18.9,53.7-11.7,16.9-32.2,34.9-55.3,48.5-4.3,2.5-7.5,5.1-7,5.6,1.6,1.9,23.2.8,32-1.3,49.2-11.6,63.6-37.4,72.9-60.6,8.5-21.2,10.6-39.2,7.1-61.9-.9-6.1-1.2-6.9-8.8-25-6-14.3-3.4-18.3,5.6-22.9,10.2-5.2,20-7.6,33.3-10.9,7.6-1.9,15.3-3.5,25.9-6.6.3,0,.3-.5,0-.5ZM162,48.7c-4.2,0-7.6-3.4-7.6-7.6s3.4-7.6,7.6-7.6,7.6,3.4,7.6,7.6-3.4,7.6-7.6,7.6Z"></path><path class="st0" d="M888.4,75.6c-.3-4.5-.5-6.9-1.3-11s-2-8.4-3.6-12.4c-2.8-7.3-4.2-11.1-8.6-17.3-2.4-3.4-5.1-6.5-8.1-9.4C860.2,19.2,842.6,0,800,.9h-312.5c-8.7,0-16.6,5.2-20.1,13.1l-39.8,101.4-9.1,22.7L425.1.9h-84.8s-55.1,137.3-55.1,137.3L291.7.9h-44.3c-11.8,0-21.4,9.3-21.9,21.1v19l30.4,12.3c2.8,1.1,2.7,5.1,0,6.1l-30.3,11.8v175.2h50.8c13.3,0,25.3-8,30.4-20.4l43.1-106.4,9.2-22.4v149.2h49.3c12.5,0,25-6.6,30.5-17.8l68.9-168.3h51.8v186.1h57.7c6,0,10.9-4.9,10.9-10.9V60.3h55.4v186.1h57.7c6,0,10.9-4.9,10.9-10.9v-63.8h46.2c1.1,0,16.9-.8,18-1,44.1-5.4,59.3-41.1,62.4-46.8s4.6-9.6,6-14.7c2.2-7.9,2.8-11.5,3.4-18.6s.4-10,0-15ZM795.7,111.6h0s-43.4,0-43.4,0v-51.1h43.4c13.5.7,24.3,11.8,24.3,25.5s-10.8,24.9-24.3,25.5Z"></path></svg>